<svg class="gibbon-logo" viewBox="0 0 38 38" fill="none" xmlns="http://www.w3.org/2000/svg">
      <rect x="4" y="4" width="30" height="3" rx="1.5" fill="rgba(34,197,94,0.5)"></rect>
      <line x1="10" y1="7" x2="13" y2="14" stroke="white" stroke-width="1.8" stroke-linecap="round"></line>
      <line x1="28" y1="7" x2="25" y2="14" stroke="white" stroke-width="1.8" stroke-linecap="round"></line>
      <g class="gibbon-body">
        <ellipse cx="19" cy="21" rx="6" ry="7.5" fill="white" opacity="0.95"></ellipse>
        <ellipse cx="19" cy="13" rx="5.5" ry="5" fill="white" opacity="0.95"></ellipse>
        <ellipse cx="15.2" cy="13.5" rx="2.2" ry="1.8" fill="rgba(34,197,94,0.3)"></ellipse>
        <ellipse cx="22.8" cy="13.5" rx="2.2" ry="1.8" fill="rgba(34,197,94,0.3)"></ellipse>
        <ellipse cx="19" cy="13.5" rx="2.8" ry="2.8" fill="rgba(6,10,6,0.12)"></ellipse>
        <g class="gibbon-eye">
          <circle cx="17.2" cy="12.5" r="1.1" fill="#021a0a"></circle>
          <circle cx="20.8" cy="12.5" r="1.1" fill="#021a0a"></circle>
          <circle cx="17.6" cy="12.1" r="0.35" fill="white"></circle>
          <circle cx="21.2" cy="12.1" r="0.35" fill="white"></circle>
        </g>
        <ellipse cx="19" cy="14.5" rx="0.7" ry="0.45" fill="rgba(6,10,6,0.25)"></ellipse>
        <path d="M17.2 15.8 Q19 17 20.8 15.8" stroke="rgba(6,10,6,0.35)" stroke-width="0.7" fill="none" stroke-linecap="round"></path>
        <g class="gibbon-tail">
          <path d="M23 26 Q28 28 26 33" stroke="white" stroke-width="1.8" fill="none" stroke-linecap="round"></path>
        </g>
        <ellipse cx="15.5" cy="28.5" rx="2.2" ry="1.2" fill="white" opacity="0.8"></ellipse>
        <ellipse cx="22.5" cy="28.5" rx="2.2" ry="1.2" fill="white" opacity="0.8"></ellipse>
      </g>
    </svg>
